#N canvas 4 61 956 992 12;
#X obj 386 -590 route AXIS_X AXIS_Y AXIS_Z AXIS_RX AXIS_RY AXIS_RZ
AXIS_HAT_X AXIS_HAT_Y;
#X obj 410 -482 pack 0 0;
#X obj 411 -524 expr ($f1+1)/2;
#X msg 410 -463 list /leftXY \$1 \$2;
#X msg 785 -542 list /toggleA \$1;
#X obj 416 -398 pack 0 0;
#X obj 416 -440 expr ($f1+1)/2;
#X msg 416 -377 list /rightXY \$1 \$2;
#X msg 805 -520 list /toggleB \$1;
#X msg 826 -496 list /toggleX \$1;
#X msg 846 -474 list /toggleY \$1;
#X msg 911 -402 list /toggleStart \$1;
#X msg 931 -380 list /toggleSelect \$1;
#X msg 948 -358 list /toggleMode \$1;
#X obj 658 -433 loadbang;
#X msg 678 -405 1;
#X msg 595 -377 list /sliderHatX \$1;
#X msg 631 -321 list /sliderHatY \$1;
#X msg 498 -310 list /sliderLZ \$1;
#X msg 515 -260 list /sliderRZ \$1;
#X obj 497 -332 expr ($f1+1)/2;
#X obj 515 -284 expr ($f1+1)/2;
#X msg 870 -448 list /toggleL1 \$1;
#X msg 890 -426 list /toggleR1 \$1;
#X obj 784 -617 route KEYCODE_BUTTON_A KEYCODE_BUTTON_B KEYCODE_BUTTON_X
KEYCODE_BUTTON_Y KEYCODE_BUTTON_L1 KEYCODE_BUTTON_R1 KEYCODE_BUTTON_START
KEYCODE_BUTTON_SELECT KEYCODE_BUTTON_MODE KEYCODE_BUTTON_THUMBL KEYCODE_BUTTON_THUMBR
;
#X msg 978 -335 list /toggleLZ \$1;
#X msg 998 -313 list /toggleRZ \$1;
#X text 518 -505 invert y;
#X obj 420 -505 expr (-$f1+1)/2;
#X text 514 -420 invert y;
#X obj 425 -421 expr (-$f1+1)/2;
#X text 703 -350 invert y;
#X obj 630 -350 expr -$f1+1;
#X obj 595 -406 + 1;
#X obj 57 -452 pack 0 0;
#X obj 58 -494 expr ($f1+1)/2;
#X obj 75 -340 pack 0 0;
#X obj 76 -382 expr ($f1+1)/2;
#X text 57 -529 tether maps things differently;
#X msg 57 -426 list /tetherLeftXY \$1 \$2;
#X msg 75 -319 list /tetherRightXY \$1 \$2;
#X msg 102 -245 list /tetherSliderLZ \$1;
#X msg 110 -196 list /tetherSliderRZ \$1;
#X obj 87 -475 expr ($f1+1)/2;
#X obj 105 -363 expr ($f1+1)/2;
#X text 196 -265 invert y;
#X text 208 -217 invert y;
#X obj 101 -267 expr (-$f1+1)/2;
#X obj 111 -218 expr (-$f1+1)/2;
#X obj 628 -29 outlet;
#X obj 638 -646 inlet;
#X obj 558 -154 t a;
#X obj 696 -154 t a;
#X obj 811 -154 t a;
#X connect 0 0 2 0;
#X connect 0 0 35 0;
#X connect 0 1 28 0;
#X connect 0 1 43 0;
#X connect 0 2 20 0;
#X connect 0 2 47 0;
#X connect 0 3 6 0;
#X connect 0 3 37 0;
#X connect 0 4 30 0;
#X connect 0 4 44 0;
#X connect 0 5 21 0;
#X connect 0 5 48 0;
#X connect 0 6 33 0;
#X connect 0 7 32 0;
#X connect 1 0 3 0;
#X connect 2 0 1 0;
#X connect 3 0 52 0;
#X connect 4 0 53 0;
#X connect 5 0 7 0;
#X connect 6 0 5 0;
#X connect 7 0 52 0;
#X connect 8 0 53 0;
#X connect 9 0 53 0;
#X connect 10 0 53 0;
#X connect 11 0 53 0;
#X connect 12 0 53 0;
#X connect 13 0 53 0;
#X connect 14 0 15 0;
#X connect 15 0 16 0;
#X connect 15 0 17 0;
#X connect 16 0 52 0;
#X connect 17 0 52 0;
#X connect 18 0 52 0;
#X connect 19 0 52 0;
#X connect 20 0 18 0;
#X connect 21 0 19 0;
#X connect 22 0 53 0;
#X connect 23 0 53 0;
#X connect 24 0 4 0;
#X connect 24 1 8 0;
#X connect 24 2 9 0;
#X connect 24 3 10 0;
#X connect 24 4 22 0;
#X connect 24 5 23 0;
#X connect 24 6 11 0;
#X connect 24 7 12 0;
#X connect 24 8 13 0;
#X connect 24 9 25 0;
#X connect 24 10 26 0;
#X connect 25 0 53 0;
#X connect 26 0 53 0;
#X connect 28 0 1 1;
#X connect 30 0 5 1;
#X connect 32 0 17 0;
#X connect 33 0 16 0;
#X connect 34 0 39 0;
#X connect 35 0 34 0;
#X connect 36 0 40 0;
#X connect 37 0 36 0;
#X connect 39 0 51 0;
#X connect 40 0 51 0;
#X connect 41 0 51 0;
#X connect 42 0 51 0;
#X connect 43 0 34 1;
#X connect 44 0 36 1;
#X connect 47 0 41 0;
#X connect 48 0 42 0;
#X connect 50 0 0 0;
#X connect 50 0 24 0;
#X connect 51 0 49 0;
#X connect 52 0 49 0;
#X connect 53 0 49 0;
