#N canvas 616 61 1302 992 10;
#X obj 133 -9 receive fromSystem;
#X obj 133 21 list trim;
#X obj 131 50 route /hid;
#X obj 668 93 route 0;
#X obj 416 148 route AXIS_X AXIS_Y AXIS_Z AXIS_RX AXIS_RY AXIS_RZ AXIS_HAT_X
AXIS_HAT_Y;
#X obj 440 256 pack 0 0;
#X obj 441 214 expr ($f1+1)/2;
#X msg 440 275 list /leftXY \$1 \$2;
#X obj 453 550 send toGUI;
#X msg 815 196 list /toggleA \$1;
#X obj 446 340 pack 0 0;
#X obj 446 298 expr ($f1+1)/2;
#X msg 446 361 list /rightXY \$1 \$2;
#X msg 835 218 list /toggleB \$1;
#X msg 856 242 list /toggleX \$1;
#X msg 876 264 list /toggleY \$1;
#X msg 941 336 list /toggleStart \$1;
#X msg 961 358 list /toggleSelect \$1;
#X msg 978 380 list /toggleMode \$1;
#X obj 873 431 send toGUI;
#X obj 688 305 loadbang;
#X msg 708 333 1;
#X msg 625 361 list /sliderHatX \$1;
#X msg 661 417 list /sliderHatY \$1;
#X msg 528 428 list /sliderLZ \$1;
#X msg 545 478 list /sliderRZ \$1;
#X obj 527 406 expr ($f1+1)/2;
#X obj 545 454 expr ($f1+1)/2;
#X msg 900 290 list /toggleL1 \$1;
#X msg 920 312 list /toggleR1 \$1;
#X obj 814 121 route KEYCODE_BUTTON_A KEYCODE_BUTTON_B KEYCODE_BUTTON_X
KEYCODE_BUTTON_Y KEYCODE_BUTTON_L1 KEYCODE_BUTTON_R1 KEYCODE_BUTTON_START
KEYCODE_BUTTON_SELECT KEYCODE_BUTTON_MODE KEYCODE_BUTTON_THUMBL KEYCODE_BUTTON_THUMBR
;
#X msg 1008 403 list /toggleLZ \$1;
#X msg 1028 425 list /toggleRZ \$1;
#X text 335 -37 A HID message is sent for every button press or axis
value change. The format of HID messages is: 1) address "/hid" 2) device
index "0" (MobMuPlat currently supports only one device at a time \;
this may change in the future). 3) The label associated with the axis/button
\, e.g. "AXIS_X" 4) The value (usually -1 to 1 for axes \, 0 and 1
for buttons);
#X text 548 233 invert y;
#X obj 450 233 expr (-$f1+1)/2;
#X text 544 318 invert y;
#X obj 455 317 expr (-$f1+1)/2;
#X text 733 388 invert y;
#X obj 660 388 expr -$f1+1;
#X obj 625 332 + 1;
#X obj 87 286 pack 0 0;
#X obj 88 244 expr ($f1+1)/2;
#X obj 105 398 pack 0 0;
#X obj 106 356 expr ($f1+1)/2;
#X text 87 209 tether maps things differently;
#X obj 303 527 send toGUI;
#X msg 87 312 list /tetherLeftXY \$1 \$2;
#X msg 105 419 list /tetherRightXY \$1 \$2;
#X msg 132 493 list /tetherSliderLZ \$1;
#X msg 140 542 list /tetherSliderRZ \$1;
#X obj 117 263 expr ($f1+1)/2;
#X obj 135 375 expr ($f1+1)/2;
#X text 226 473 invert y;
#X text 238 521 invert y;
#X obj 131 471 expr (-$f1+1)/2;
#X obj 141 520 expr (-$f1+1)/2;
#X msg 922 870 list /test_text \$1;
#X msg 900 705 LOADBANG;
#X symbolatom 919 746 10 0 0 0 - - -, f 10;
#X obj 900 730 t s;
#X obj 1002 684 loadbang;
#X obj 1002 709 del 5000;
#X symbolatom 997 772 10 0 0 0 - - -, f 10;
#X obj 997 752 t s;
#X msg 997 731 LB_2;
#X msg 117 809 list /test_text2 \$1;
#X msg 40 14 AXIS_Y 0.5;
#X msg -39 15 AXIS_X 0.75;
#X obj 574 760 vsl 25 52 -1 1 0 0 empty empty empty 0 -9 0 10 #fcfcfc
#000000 #000000 0 1;
#X floatatom 569 828 5 0 0 0 - - -, f 5;
#X msg 28 47 0 AXIS_X \$1;
#X msg 852 829 list /test_num \$1;
#X obj 498 739 list length;
#X floatatom 498 764 5 0 0 0 - - -, f 5;
#X obj 267 746 list split 1;
#X floatatom 361 800 5 0 0 0 - - -, f 5;
#X obj 361 775 list split 1;
#X obj 993 839 t s;
#X obj 414 810 list split 1;
#X msg 107 830 list /test_text3 \$1;
#X obj 613 669 tgl 40 0 empty empty empty 17 7 0 10 #fcfcfc #000000
#000000 0 1;
#X msg 607 728 0 KEYCODE_BUTTON_A \$1;
#X obj 459 651 t a a;
#X connect 0 0 1 0;
#X connect 1 0 2 0;
#X connect 2 0 3 0;
#X connect 3 0 4 0;
#X connect 3 0 30 0;
#X connect 4 0 6 0;
#X connect 4 0 42 0;
#X connect 4 1 35 0;
#X connect 4 1 51 0;
#X connect 4 2 26 0;
#X connect 4 2 55 0;
#X connect 4 3 11 0;
#X connect 4 3 44 0;
#X connect 4 4 37 0;
#X connect 4 4 52 0;
#X connect 4 5 27 0;
#X connect 4 5 56 0;
#X connect 4 6 40 0;
#X connect 4 7 39 0;
#X connect 5 0 7 0;
#X connect 6 0 5 0;
#X connect 7 0 8 0;
#X connect 9 0 19 0;
#X connect 10 0 12 0;
#X connect 11 0 10 0;
#X connect 12 0 8 0;
#X connect 13 0 19 0;
#X connect 14 0 19 0;
#X connect 15 0 19 0;
#X connect 16 0 19 0;
#X connect 17 0 19 0;
#X connect 18 0 19 0;
#X connect 20 0 21 0;
#X connect 21 0 22 0;
#X connect 21 0 23 0;
#X connect 22 0 8 0;
#X connect 23 0 8 0;
#X connect 24 0 8 0;
#X connect 25 0 8 0;
#X connect 26 0 24 0;
#X connect 27 0 25 0;
#X connect 28 0 19 0;
#X connect 29 0 19 0;
#X connect 30 0 9 0;
#X connect 30 1 13 0;
#X connect 30 2 14 0;
#X connect 30 3 15 0;
#X connect 30 4 28 0;
#X connect 30 5 29 0;
#X connect 30 6 16 0;
#X connect 30 7 17 0;
#X connect 30 8 18 0;
#X connect 30 9 31 0;
#X connect 30 10 32 0;
#X connect 31 0 19 0;
#X connect 32 0 19 0;
#X connect 35 0 5 1;
#X connect 37 0 10 1;
#X connect 39 0 23 0;
#X connect 40 0 22 0;
#X connect 41 0 47 0;
#X connect 42 0 41 0;
#X connect 43 0 48 0;
#X connect 44 0 43 0;
#X connect 47 0 46 0;
#X connect 48 0 46 0;
#X connect 49 0 46 0;
#X connect 50 0 46 0;
#X connect 51 0 41 1;
#X connect 52 0 43 1;
#X connect 55 0 49 0;
#X connect 56 0 50 0;
#X connect 57 0 46 0;
#X connect 58 0 60 0;
#X connect 60 0 59 0;
#X connect 60 0 57 0;
#X connect 61 0 62 0;
#X connect 62 0 58 0;
#X connect 62 0 65 0;
#X connect 63 0 66 0;
#X connect 64 0 63 0;
#X connect 65 0 64 0;
#X connect 66 0 46 0;
#X connect 67 0 4 0;
#X connect 68 0 4 0;
#X connect 69 0 70 0;
#X connect 69 0 71 0;
#X connect 71 0 3 0;
#X connect 72 0 46 0;
#X connect 73 0 74 0;
#X connect 73 0 72 0;
#X connect 75 0 78 0;
#X connect 75 1 77 0;
#X connect 77 0 76 0;
#X connect 77 0 66 0;
#X connect 77 1 79 0;
#X connect 78 0 57 0;
#X connect 79 0 80 0;
#X connect 80 0 46 0;
#X connect 81 0 82 0;
#X connect 83 0 75 0;
#X connect 83 1 73 0;
